<?xml version="1.0" encoding="UTF-8"?>
<svg width="17px" height="14px" viewBox="0 0 17 14" version="1.1" xmlns="http://www.w3.org/2000/svg" xmlns:xlink="http://www.w3.org/1999/xlink">
    <!-- Generator: Sketch 54.1 (76490) - https://sketchapp.com -->
    <title>ic_format_list_numbered copy</title>
    <desc>Created with Sketch.</desc>
    <g id="Page-1" stroke="none" stroke-width="1" fill="none" fill-rule="evenodd">
        <g id="contract---clause-edit-within-contract-editor" transform="translate(-617.000000, -48.000000)">
            <g id="ic_format_list_numbered-copy" transform="translate(616.000000, 45.000000)">
                <g id="Icon-24px">
                    <path d="M1.66666667,14.1666667 L3.33333333,14.1666667 L3.33333333,14.5833333 L2.5,14.5833333 L2.5,15.4166667 L3.33333333,15.4166667 L3.33333333,15.8333333 L1.66666667,15.8333333 L1.66666667,16.6666667 L4.16666667,16.6666667 L4.16666667,13.3333333 L1.66666667,13.3333333 L1.66666667,14.1666667 L1.66666667,14.1666667 Z M2.5,6.66666667 L3.33333333,6.66666667 L3.33333333,3.33333333 L1.66666667,3.33333333 L1.66666667,4.16666667 L2.5,4.16666667 L2.5,6.66666667 L2.5,6.66666667 Z M1.66666667,9.16666667 L3.16666667,9.16666667 L1.66666667,10.9166667 L1.66666667,11.6666667 L4.16666667,11.6666667 L4.16666667,10.8333333 L2.66666667,10.8333333 L4.16666667,9.08333333 L4.16666667,8.33333333 L1.66666667,8.33333333 L1.66666667,9.16666667 L1.66666667,9.16666667 Z M5.83333333,4.16666667 L5.83333333,5.83333333 L17.5,5.83333333 L17.5,4.16666667 L5.83333333,4.16666667 L5.83333333,4.16666667 Z M5.83333333,15.8333333 L17.5,15.8333333 L17.5,14.1666667 L5.83333333,14.1666667 L5.83333333,15.8333333 L5.83333333,15.8333333 Z M5.83333333,10.8333333 L17.5,10.8333333 L17.5,9.16666667 L5.83333333,9.16666667 L5.83333333,10.8333333 L5.83333333,10.8333333 Z" id="Shape" fill="#949CA2"></path>
                    <polygon id="Shape" points="0 0 20 0 20 20 0 20"></polygon>
                </g>
            </g>
        </g>
    </g>
</svg>